<svg xmlns="http://www.w3.org/2000/svg" xml:space="preserve" style="fill-rule:evenodd;clip-rule:evenodd;stroke-linejoin:round;stroke-miterlimit:2" viewBox="0 0 186 186">
  <style>
  .text {
    fill: #231f20;
  }
  @media (prefers-color-scheme: dark) {
      .text {
          fill: white;
      }
  }
  </style>
  <path d="M143.373 16.991c-.507.73-.325 1.732.409 2.24.732.507 1.733.326 2.241-.408.508-.728.326-1.732-.405-2.24a1.6114 1.6114 0 0 0-.918-.288c-.51 0-1.011.242-1.327.696Zm1.148 11.07c-.796.773-.811 2.052-.035 2.844.78.795 2.055.811 2.847.035.792-.776.809-2.054.032-2.85a1.997 1.997 0 0 0-1.435-.607c-.507 0-1.016.192-1.409.578Zm12.377-.099c-.636.622-.647 1.641-.029 2.279.622.638 1.642.651 2.279.03.639-.622.651-1.641.035-2.281a1.6141 1.6141 0 0 0-1.156-.485c-.407 0-.814.152-1.129.457Zm-25.49 1.542c-.964 1.44-.584 3.394.861 4.357 1.435.969 3.388.588 4.361-.856.963-1.443.583-3.392-.859-4.36a3.1364 3.1364 0 0 0-1.751-.534c-1.013 0-2.007.489-2.612 1.393Zm11.779 8.853c-1.235 1.221-1.239 3.212-.023 4.44 1.226 1.236 3.211 1.242 4.454.021 1.227-1.22 1.236-3.21.017-4.445a3.1394 3.1394 0 0 0-2.232-.929c-.801 0-1.601.304-2.216.913Zm12.624.568c-.924.615-1.18 1.863-.566 2.79.617.927 1.861 1.181 2.791.57.926-.616 1.179-1.866.568-2.791-.388-.586-1.03-.904-1.684-.904-.381 0-.767.108-1.109.335Zm-24.968 2.063c-1.301 1.288-1.311 3.381-.026 4.678 1.287 1.301 3.374 1.311 4.677.023 1.298-1.282 1.307-3.378.022-4.674-.647-.655-1.5-.983-2.353-.983-.839 0-1.678.318-2.32.956Zm37.034.016c-.741.491-.943 1.491-.448 2.232.486.744 1.489.945 2.232.45.738-.488.94-1.492.454-2.229-.31-.469-.822-.723-1.345-.723-.307 0-.618.088-.893.27Zm-47.592 4.662c-1.201 1.779-.733 4.194 1.045 5.391 1.777 1.2 4.194.728 5.392-1.051 1.199-1.779.726-4.189-1.052-5.39a3.8669 3.8669 0 0 0-2.166-.663c-1.249 0-2.475.602-3.219 1.713Zm20.008 3.824c-1.524 1.003-1.948 3.059-.944 4.582 1.007 1.524 3.055 1.948 4.583.941 1.525-1.005 1.948-3.058.94-4.583-.634-.963-1.69-1.487-2.765-1.488-.625 0-1.256.177-1.814.548Zm13.216.598c-1.463.94-1.888 2.884-.948 4.344.933 1.461 2.879 1.887 4.343.946 1.457-.936 1.882-2.874.955-4.337-.603-.937-1.62-1.448-2.658-1.448-.58 0-1.167.16-1.692.495Zm-24.774 1.609c-1.51 1.521-1.51 3.98.015 5.493 1.521 1.513 3.983 1.508 5.488-.013 1.518-1.522 1.512-3.978-.011-5.491-.756-.755-1.748-1.133-2.74-1.133-.997 0-1.994.382-2.752 1.144Zm-15.853 3.015c-1.371 2.042-.821 4.811 1.228 6.181 2.041 1.368 4.813.818 6.186-1.229 1.367-2.046.816-4.814-1.228-6.186-.761-.508-1.621-.751-2.471-.751-1.439 0-2.851.697-3.715 1.985Zm52.678-1.74c-1.029.41-1.537 1.582-1.131 2.618.415 1.032 1.586 1.538 2.621 1.125 1.033-.409 1.535-1.581 1.125-2.614-.313-.792-1.072-1.271-1.873-1.271-.247 0-.498.046-.742.142Zm10.913 3.413c-.822.342-1.207 1.282-.873 2.105.339.824 1.278 1.212 2.104.875.821-.341 1.214-1.284.872-2.104-.255-.623-.854-.997-1.488-.998-.205 0-.413.04-.615.122Zm-40.161 3.165c-1.804 1.17-2.311 3.576-1.142 5.375 1.168 1.795 3.575 2.306 5.367 1.138 1.8-1.172 2.312-3.572 1.149-5.37-.748-1.147-1.995-1.77-3.265-1.77-.725 0-1.457.202-2.109.627Zm11.536.057c-1.691.687-2.506 2.618-1.814 4.311.689 1.69 2.617 2.504 4.309 1.813 1.694-.686 2.507-2.615 1.81-4.309-.52-1.283-1.752-2.062-3.057-2.062-.416 0-.838.079-1.248.247Zm12.231 1.737c-1.61.669-2.36 2.511-1.698 4.108.661 1.606 2.506 2.364 4.114 1.697 1.595-.668 2.356-2.505 1.694-4.107a3.157 3.157 0 0 0-2.908-1.938c-.401 0-.809.077-1.202.24Zm-55.159 2.284c-1.854 2.189-1.588 5.465.61 7.321 2.185 1.857 5.465 1.584 7.319-.611 1.855-2.188 1.579-5.466-.607-7.318a5.1832 5.1832 0 0 0-3.358-1.231c-1.475 0-2.939.624-3.964 1.839Zm19.127-.525c-1.946 1.506-2.305 4.302-.792 6.251 1.504 1.948 4.308 2.303 6.256.794 1.944-1.504 2.294-4.304.789-6.252-.879-1.134-2.194-1.728-3.525-1.729-.953 0-1.914.306-2.728.936Zm47.488 3.492c-1.088.217-1.794 1.279-1.57 2.371.217 1.089 1.273 1.793 2.369 1.576 1.089-.218 1.8-1.281 1.574-2.37-.188-.959-1.029-1.617-1.97-1.617-.133 0-.267.013-.403.04Zm-30.029 1.365c-1.965.851-2.88 3.132-2.026 5.102.849 1.971 3.129 2.879 5.105 2.032 1.964-.851 2.876-3.135 2.027-5.104-.634-1.471-2.063-2.349-3.567-2.349-.514 0-1.036.103-1.539.319Zm11.641 2.655c-1.79.358-2.952 2.1-2.594 3.89.355 1.795 2.099 2.955 3.889 2.596 1.793-.356 2.954-2.101 2.597-3.894-.315-1.568-1.697-2.656-3.241-2.656-.214 0-.432.021-.651.064Zm-36.982.829c-2.605 1.196-3.753 4.281-2.561 6.887 1.2 2.609 4.283 3.758 6.89 2.56 2.61-1.195 3.754-4.279 2.556-6.886-.876-1.909-2.758-3.035-4.725-3.035-.724 0-1.459.152-2.16.474Zm65.588.838c-.875.182-1.426 1.033-1.239 1.908.177.869 1.032 1.426 1.904 1.24.869-.184 1.426-1.036 1.243-1.907-.156-.756-.827-1.276-1.572-1.276-.111 0-.223.011-.336.035Zm-16.956 2.152c-1.698.356-2.788 2.022-2.433 3.72.354 1.699 2.02 2.785 3.726 2.434 1.692-.36 2.781-2.022 2.429-3.719-.308-1.483-1.619-2.502-3.076-2.502-.213 0-.429.022-.646.067Zm-32.371 1.138c-2.347.757-3.628 3.269-2.868 5.61.751 2.344 3.26 3.63 5.603 2.874 2.343-.755 3.631-3.268 2.88-5.611-.613-1.888-2.36-3.09-4.242-3.09-.455 0-.917.07-1.373.217Zm12.757 2.575c-2.091.481-3.396 2.572-2.906 4.66.486 2.09 2.57 3.389 4.664 2.905 2.083-.489 3.382-2.574 2.895-4.663-.415-1.792-2.005-3.005-3.769-3.005-.292 0-.588.033-.884.103Zm29.778 2.755c-1.108.023-1.996.943-1.968 2.056.018 1.112.943 1.993 2.055 1.971 1.109-.023 1.988-.943 1.971-2.055-.026-1.097-.925-1.972-2.015-1.972h-.043Zm-57.17 7.579c-.029 2.869 2.272 5.219 5.141 5.247 2.87.027 5.223-2.27 5.248-5.141.028-2.87-2.273-5.221-5.14-5.247h-.056c-2.849 0-5.167 2.288-5.193 5.141Zm35.303-1.834c-.016 1.827 1.457 3.319 3.287 3.331 1.827.014 3.314-1.456 3.33-3.282.008-1.826-1.457-3.317-3.287-3.334h-.018c-1.813 0-3.303 1.464-3.312 3.285Zm13.952 2.4c-1.739.012-3.138 1.428-3.12 3.163.003 1.736 1.425 3.131 3.162 3.121 1.739-.014 3.136-1.427 3.126-3.163-.013-1.73-1.42-3.121-3.148-3.121h-.02Zm-35.289 4.635c-.053 2.463 1.892 4.504 4.358 4.557 2.459.057 4.499-1.896 4.551-4.355.059-2.462-1.897-4.502-4.354-4.559-.034 0-.069-.001-.103-.001-2.415 0-4.399 1.933-4.452 4.358Zm11.795-.19c-.016 2.147 1.707 3.896 3.849 3.915 2.151.018 3.899-1.708 3.921-3.853.014-2.146-1.712-3.898-3.861-3.913h-.031c-2.128 0-3.862 1.72-3.878 3.851Zm40.535-3.364c-.893.008-1.601.738-1.598 1.627.01.891.74 1.604 1.63 1.593.892-.009 1.608-.738 1.596-1.625-.007-.886-.73-1.595-1.609-1.595h-.019Zm-66.76 9.061c-1.224 2.594-.1 5.691 2.487 6.913 2.6 1.219 5.693.106 6.912-2.492 1.221-2.598.108-5.695-2.49-6.912a5.1782 5.1782 0 0 0-2.208-.495c-1.951 0-3.82 1.103-4.701 2.986Zm35.709.652c-.413 1.781.707 3.553 2.49 3.963 1.777.406 3.548-.71 3.957-2.49.406-1.779-.706-3.553-2.487-3.96-.25-.057-.499-.084-.744-.084-1.507 0-2.866 1.036-3.216 2.571Zm20.279.06c-.215 1.097.505 2.148 1.602 2.357 1.089.21 2.142-.508 2.352-1.598.214-1.093-.506-2.147-1.598-2.355a2.044 2.044 0 0 0-.386-.038c-.945 0-1.784.67-1.97 1.634Zm-30.844 3.491c-.436 2.104.911 4.159 3.012 4.592 2.1.437 4.155-.912 4.593-3.014.434-2.1-.91-4.152-3.015-4.591a3.9745 3.9745 0 0 0-.792-.082c-1.803 0-3.421 1.262-3.798 3.095Zm-12.572 1.457c-.761 2.34.515 4.856 2.862 5.617 2.34.762 4.855-.518 5.615-2.859.765-2.343-.519-4.856-2.858-5.619a4.4755 4.4755 0 0 0-1.383-.221c-1.878 0-3.624 1.197-4.236 3.082Zm32.564 2.472c-.359 1.696.726 3.361 2.432 3.72 1.695.355 3.362-.732 3.722-2.427.35-1.7-.73-3.366-2.431-3.723a3.1487 3.1487 0 0 0-.65-.068c-1.458 0-2.762 1.013-3.073 2.498Zm-49.524.782c-2.13 1.922-2.298 5.212-.377 7.342 1.921 2.131 5.207 2.301 7.335.378 2.137-1.924 2.303-5.211.382-7.335-1.027-1.139-2.444-1.719-3.865-1.719-1.239 0-2.482.44-3.475 1.334Zm67.939 1.804c-.167.874.403 1.717 1.275 1.891.869.171 1.72-.398 1.891-1.272.175-.87-.398-1.716-1.271-1.889a1.567 1.567 0 0 0-.31-.031c-.753 0-1.43.534-1.585 1.301Zm-30.14.93c-.728 1.673.045 3.623 1.72 4.354 1.668.726 3.618-.044 4.348-1.719.724-1.674-.037-3.625-1.715-4.35a3.2927 3.2927 0 0 0-1.318-.276c-1.279 0-2.498.744-3.035 1.991Zm-11.066 1.576c-.825 1.986.125 4.255 2.11 5.071 1.98.821 4.252-.124 5.072-2.106.811-1.985-.131-4.255-2.11-5.071-.486-.2-.989-.295-1.483-.295-1.527 0-2.971.905-3.589 2.401Zm-14.177 1.703c-1.35 2.061-.772 4.826 1.284 6.175 2.063 1.348 4.825.771 6.173-1.289 1.349-2.059.776-4.819-1.284-6.169a4.4275 4.4275 0 0 0-2.44-.731c-1.454 0-2.879.71-3.733 2.014Zm44.808 1.729c-.421 1.029.065 2.205 1.094 2.63 1.029.423 2.202-.066 2.628-1.097.425-1.026-.065-2.202-1.095-2.627a1.999 1.999 0 0 0-.767-.153c-.79 0-1.541.47-1.86 1.247Zm-65.394-.918c-2.732.882-4.233 3.809-3.35 6.542.88 2.73 3.808 4.229 6.533 3.35 2.736-.88 4.237-3.81 3.358-6.537-.711-2.206-2.751-3.606-4.947-3.606-.527 0-1.064.081-1.594.251Zm53.42 5.673c-.677 1.596.062 3.438 1.66 4.125 1.598.68 3.436-.06 4.123-1.653.677-1.601-.057-3.446-1.66-4.127a3.1312 3.1312 0 0 0-1.234-.254c-1.22 0-2.382.715-2.889 1.909Zm-11.909.701c-1.031 1.513-.637 3.567.878 4.595 1.505 1.026 3.561.63 4.593-.881 1.023-1.508.63-3.566-.879-4.593a3.2838 3.2838 0 0 0-1.854-.572c-1.059 0-2.099.509-2.738 1.451Zm-11.797.382c-1.213 1.77-.762 4.187 1.006 5.398 1.777 1.214 4.187.759 5.401-1.009 1.218-1.771.757-4.187-1.01-5.4-.671-.46-1.434-.68-2.19-.68-1.238 0-2.455.591-3.207 1.691Zm-17.506 1.661c-1.928 1.524-2.261 4.33-.733 6.262 1.529 1.93 4.335 2.257 6.263.733 1.933-1.528 2.259-4.33.735-6.263-.882-1.112-2.186-1.693-3.503-1.693-.967 0-1.942.313-2.762.961Zm11.319 5.711c-1.528 1.51-1.538 3.967-.029 5.492 1.507 1.523 3.963 1.535 5.488.029 1.528-1.51 1.544-3.965.032-5.493-.76-.767-1.76-1.151-2.76-1.151-.988-.001-1.975.374-2.731 1.123Zm46.489-.046c-.36.814.013 1.766.825 2.126.81.364 1.758-.007 2.121-.817.364-.816-.008-1.765-.82-2.126a1.608 1.608 0 0 0-.653-.139c-.618 0-1.206.357-1.473.956Zm-11.052 2.387c-.63.922-.395 2.176.521 2.801.92.625 2.18.392 2.802-.526.634-.918.395-2.172-.527-2.8a1.9913 1.9913 0 0 0-1.132-.352c-.641 0-1.273.307-1.664.877Zm-24.404.325c-1.319 1.267-1.357 3.364-.087 4.68 1.271 1.31 3.365 1.349 4.677.081 1.315-1.268 1.35-3.363.082-4.678a3.2903 3.2903 0 0 0-2.376-1.011c-.826 0-1.653.309-2.296.928Zm12.494.693c-.972 1.438-.591 3.387.852 4.364 1.436.967 3.385.584 4.362-.851.967-1.441.584-3.394-.855-4.363a3.1136 3.1136 0 0 0-1.753-.54c-1.01 0-2.002.489-2.606 1.39Zm-31.311 3.001c-1.813 1.155-2.336 3.557-1.18 5.363 1.157 1.809 3.559 2.334 5.367 1.183 1.804-1.158 2.331-3.56 1.179-5.368-.744-1.157-1.997-1.789-3.278-1.789-.716 0-1.44.197-2.088.611Zm10.517 4.563c-1.537.991-1.968 3.045-.978 4.577.987 1.531 3.039 1.967 4.575.975 1.531-.991 1.971-3.038.977-4.575-.636-.977-1.698-1.509-2.781-1.509-.616 0-1.238.172-1.793.532Zm11.396 3.747c-1.243 1.211-1.27 3.198-.066 4.448 1.211 1.242 3.202 1.271 4.447.069 1.247-1.211 1.276-3.201.065-4.448-.617-.636-1.436-.955-2.256-.955-.788 0-1.578.295-2.19.886Zm12.636.546c-.796.786-.803 2.063-.027 2.851.779.792 2.059.8 2.851.022.793-.784.799-2.057.015-2.846a1.992 1.992 0 0 0-1.43-.602c-.508 0-1.017.192-1.409.575Zm10.632.731c-.519.725-.353 1.732.366 2.251.724.517 1.733.355 2.251-.367.517-.722.357-1.733-.367-2.247a1.6084 1.6084 0 0 0-.94-.303c-.501 0-.993.232-1.31.666Zm-34.44 7.637c-1.459.932-1.882 2.876-.949 4.347.931 1.455 2.876 1.882 4.337.951 1.465-.936 1.896-2.88.953-4.341-.599-.939-1.616-1.452-2.653-1.452-.58 0-1.165.16-1.688.495Zm12.317 3.024c-.934.611-1.196 1.857-.59 2.79.605.932 1.853 1.194 2.784.587.931-.606 1.196-1.854.59-2.783-.388-.595-1.035-.917-1.693-.917-.376 0-.755.105-1.091.323Zm12.318.873c-.636.624-.636 1.641-.012 2.276.62.631 1.645.641 2.278.016.638-.623.638-1.642.017-2.276-.315-.32-.732-.481-1.149-.481-.408 0-.818.154-1.134.465Zm-13.806 11.213c-.741.487-.952 1.489-.46 2.233.486.743 1.483.951 2.222.464.755-.488.955-1.485.467-2.228-.304-.474-.819-.731-1.346-.731-.303 0-.61.085-.883.262Z" style="fill:url(#a);fill-rule:nonzero"/>
  <path d="M101.704 64.115c-.768 2.765-3.642 4.379-6.402 3.605-2.766-.768-4.376-3.639-3.603-6.402.764-2.764 3.635-4.374 6.399-3.604 2.763.77 4.376 3.639 3.606 6.401M89.647 122.528c.258-2.856 2.788-4.965 5.642-4.71 2.864.262 4.967 2.786 4.709 5.647-.257 2.854-2.782 4.962-5.643 4.704-2.858-.255-4.964-2.787-4.708-5.641M78.44 118.94c1.335-2.54 4.484-3.509 7.022-2.173 2.535 1.344 3.507 4.483 2.166 7.021-1.335 2.538-4.483 3.507-7.021 2.171-2.535-1.339-3.508-4.484-2.167-7.019M69.167 110.901c2.241-1.788 5.507-1.422 7.297.826 1.787 2.246 1.419 5.511-.825 7.301-2.243 1.79-5.514 1.414-7.304-.829s-1.417-5.513.832-7.298M63.912 99.891c2.77-.748 5.623.896 6.367 3.667.737 2.775-.902 5.621-3.68 6.365-2.765.746-5.616-.9-6.364-3.674-.741-2.768.905-5.619 3.677-6.358M63.403 88.191c2.848.374 4.85 2.984 4.473 5.83-.375 2.844-2.985 4.846-5.831 4.466-2.845-.37-4.848-2.986-4.472-5.829.377-2.843 2.992-4.843 5.83-4.467M67.66 76.804c2.466 1.473 3.265 4.665 1.788 7.129-1.476 2.458-4.667 3.259-7.126 1.779-2.464-1.473-3.256-4.663-1.79-7.126 1.477-2.459 4.671-3.255 7.128-1.782M76.094 68.047c1.674 2.332 1.136 5.577-1.192 7.25-2.338 1.672-5.58 1.14-7.251-1.196-1.674-2.328-1.141-5.575 1.192-7.246 2.329-1.675 5.579-1.139 7.251 1.192M88.674 63.131c.479 2.832-1.425 5.514-4.257 5.992-2.832.475-5.508-1.43-5.987-4.261-.476-2.83 1.429-5.511 4.261-5.986 2.826-.48 5.504 1.427 5.983 4.254M97.532 136.254c0 2.462-1.995 4.459-4.462 4.459-2.457 0-4.449-1.997-4.449-4.459 0-2.459 1.992-4.456 4.449-4.456 2.467 0 4.462 1.997 4.462 4.456M110.992 132.576c.778 2.339-.481 4.859-2.816 5.639-2.336.776-4.862-.483-5.638-2.82-.78-2.334.478-4.858 2.815-5.638 2.338-.778 4.863.481 5.639 2.819M88.349 49.84c.076-2.463 2.131-4.393 4.593-4.316 2.467.077 4.396 2.137 4.32 4.598-.083 2.462-2.146 4.393-4.601 4.311-2.462-.075-4.392-2.135-4.312-4.593M101.538 50.212c.78-2.333 3.312-3.589 5.645-2.806 2.335.788 3.589 3.315 2.802 5.648-.783 2.333-3.31 3.59-5.641 2.805-2.339-.785-3.589-3.311-2.806-5.647M75.198 53.544c-.725-2.352.589-4.849 2.942-5.575 2.352-.725 4.844.59 5.577 2.941.726 2.351-.591 4.85-2.944 5.576-2.35.731-4.849-.588-5.575-2.942M63.166 61.771c-1.486-1.966-1.095-4.762.874-6.245 1.963-1.482 4.756-1.093 6.242.87 1.484 1.964 1.094 4.762-.876 6.244-1.962 1.486-4.756 1.097-6.24-.869M50.548 84.461c-2.324-.815-3.552-3.354-2.74-5.679.816-2.325 3.356-3.548 5.683-2.738 2.324.816 3.548 3.358 2.733 5.682-.812 2.323-3.354 3.547-5.676 2.735M54.858 71.93c-2.029-1.39-2.543-4.166-1.15-6.199 1.394-2.028 4.171-2.545 6.198-1.149 2.034 1.393 2.547 4.171 1.151 6.2-1.393 2.029-4.169 2.544-6.199 1.148M49.789 97.85c-2.46-.092-4.383-2.158-4.292-4.618.091-2.46 2.157-4.384 4.616-4.295 2.46.089 4.379 2.156 4.298 4.617-.089 2.458-2.156 4.382-4.622 4.296M53.316 111.094c-2.363.693-4.843-.656-5.531-3.021-.697-2.361.658-4.839 3.018-5.535 2.359-.693 4.839.66 5.531 3.023.693 2.364-.653 4.838-3.018 5.533M61.031 122.573c-1.992 1.454-4.779 1.024-6.237-.96-1.45-1.987-1.022-4.778.963-6.233 1.986-1.458 4.775-1.028 6.232.96 1.453 1.984 1.028 4.775-.958 6.233M82.666 135.497c-.851 2.312-3.408 3.503-5.722 2.654-2.308-.845-3.5-3.404-2.653-5.717.847-2.311 3.407-3.501 5.722-2.654 2.308.845 3.497 3.404 2.653 5.717M71.405 130.921c-1.427 2.01-4.209 2.485-6.218 1.062-2.003-1.424-2.484-4.207-1.061-6.214 1.422-2.01 4.203-2.485 6.216-1.06 2.004 1.419 2.48 4.203 1.063 6.212M96.957 38.458c0 2.146-1.735 3.884-3.887 3.884-2.139 0-3.878-1.738-3.878-3.884 0-2.145 1.739-3.883 3.878-3.883 2.152 0 3.887 1.738 3.887 3.883M107.549 40.302c-.421 2.104-2.467 3.467-4.566 3.046-2.102-.417-3.469-2.464-3.047-4.566.419-2.105 2.465-3.47 4.571-3.049 2.1.42 3.462 2.465 3.042 4.569M117.082 43.934c-.805 1.988-3.069 2.95-5.058 2.146-1.991-.804-2.946-3.066-2.146-5.055.801-1.989 3.061-2.947 5.053-2.147 1.992.804 2.95 3.068 2.151 5.056M38.397 89.346c2.146-.018 3.893 1.709 3.912 3.857.013 2.142-1.715 3.893-3.854 3.911-2.149.014-3.894-1.711-3.912-3.853-.016-2.149 1.707-3.897 3.854-3.915M40.158 78.74c2.106.406 3.484 2.441 3.084 4.546-.406 2.106-2.442 3.485-4.545 3.079-2.11-.404-3.484-2.438-3.081-4.544.399-2.106 2.432-3.485 4.542-3.081M43.722 69.184c1.992.788 2.966 3.045 2.181 5.038-.79 1.996-3.047 2.972-5.039 2.184-1.994-.787-2.972-3.043-2.183-5.037.788-1.995 3.044-2.972 5.041-2.185M49.721 59.498c1.785 1.187 2.273 3.594 1.092 5.381-1.187 1.788-3.594 2.278-5.384 1.09-1.787-1.182-2.277-3.592-1.09-5.378 1.182-1.788 3.589-2.276 5.382-1.093M56.837 51.927c1.528 1.502 1.551 3.962.051 5.49-1.505 1.532-3.96 1.554-5.491.055-1.534-1.504-1.557-3.962-.054-5.493 1.502-1.531 3.961-1.556 5.494-.052M65.672 45.558c1.18 1.792.691 4.2-1.099 5.381s-4.197.689-5.38-1.099c-1.18-1.791-.693-4.199 1.1-5.382 1.787-1.179 4.194-.689 5.379 1.1M74.675 41.45c.863 1.964-.035 4.254-1.995 5.118-1.96.864-4.252-.026-5.115-1.99-.863-1.962.03-4.255 1.986-5.118 1.962-.864 4.254.026 5.124 1.99M85.271 39.016c.5 2.085-.784 4.182-2.869 4.681-2.089.503-4.179-.783-4.678-2.867-.506-2.085.78-4.182 2.863-4.681 2.095-.501 4.182.781 4.684 2.867M89.284 147.501c-.016-2.146 1.71-3.896 3.859-3.909 2.142-.02 3.89 1.709 3.909 3.852.013 2.148-1.714 3.897-3.857 3.911-2.142.016-3.893-1.714-3.911-3.854M78.676 145.731c.406-2.104 2.449-3.482 4.552-3.077 2.103.404 3.486 2.44 3.077 4.545-.405 2.106-2.439 3.484-4.549 3.079-2.103-.404-3.48-2.443-3.081-4.547M69.124 142.166c.792-1.993 3.048-2.971 5.041-2.183 1.995.791 2.973 3.046 2.185 5.043-.791 1.994-3.052 2.97-5.039 2.178-1.994-.787-2.976-3.044-2.187-5.038M59.439 136.163c1.192-1.791 3.596-2.276 5.386-1.091 1.788 1.187 2.272 3.596 1.087 5.382-1.18 1.79-3.59 2.276-5.38 1.088-1.79-1.185-2.273-3.594-1.093-5.379M51.876 129.045c1.496-1.53 3.955-1.555 5.486-.053 1.534 1.502 1.553 3.962.054 5.492-1.502 1.528-3.961 1.557-5.489.053-1.533-1.505-1.556-3.962-.051-5.492M45.512 120.204c1.787-1.183 4.201-.691 5.38 1.101 1.181 1.788.687 4.196-1.103 5.381-1.794 1.18-4.201.688-5.379-1.107-1.183-1.788-.688-4.191 1.102-5.375M41.405 111.202c1.965-.861 4.257.032 5.114 1.995.87 1.963-.025 4.254-1.992 5.115-1.958.863-4.247-.03-5.108-1.993-.868-1.963.023-4.254 1.986-5.117M38.979 100.6c2.083-.502 4.181.786 4.68 2.869.499 2.087-.787 4.183-2.874 4.682-2.084.502-4.178-.783-4.673-2.871-.503-2.089.78-4.178 2.867-4.68M110.412 144.751c-.835-1.976.092-4.254 2.071-5.089 1.976-.833 4.246.096 5.081 2.069.839 1.974-.091 4.254-2.063 5.089-1.973.831-4.249-.095-5.089-2.069M99.78 147.026c-.474-2.096.844-4.17 2.938-4.639 2.088-.471 4.166.847 4.634 2.942.474 2.091-.844 4.165-2.938 4.635-2.091.469-4.162-.845-4.634-2.939M89.192 29.253c0 1.827-1.477 3.31-3.307 3.31-1.833 0-3.31-1.483-3.31-3.31 0-1.825 1.477-3.309 3.31-3.309 1.83 0 3.307 1.484 3.307 3.309M103.986 30.178c-.416 1.778-2.198 2.879-3.977 2.453-1.78-.419-2.88-2.2-2.461-3.978.426-1.779 2.209-2.877 3.99-2.458 1.774.423 2.872 2.207 2.448 3.983M115.473 33.389c-.737 1.666-2.697 2.416-4.363 1.669-1.668-.744-2.416-2.702-1.675-4.369.748-1.667 2.704-2.415 4.374-1.67 1.664.745 2.416 2.7 1.664 4.37M125.674 38.378c-1.025 1.512-3.084 1.901-4.597.873-1.505-1.029-1.894-3.086-.863-4.597 1.024-1.508 3.085-1.9 4.594-.871 1.515 1.03 1.895 3.089.866 4.595M119.864 150.676c-.692-1.696.123-3.626 1.811-4.315 1.691-.691 3.626.127 4.316 1.818.689 1.692-.124 3.622-1.815 4.315-1.695.683-3.619-.132-4.312-1.818M108.327 154.815c-.353-1.793.814-3.534 2.608-3.886 1.793-.355 3.529.814 3.884 2.609.353 1.79-.815 3.529-2.608 3.882-1.797.352-3.532-.813-3.884-2.605M96.466 156.655c-.004-1.828 1.47-3.315 3.291-3.326 1.833-.013 3.314 1.462 3.325 3.288.017 1.828-1.464 3.316-3.29 3.328-1.825.011-3.31-1.464-3.326-3.29M82.279 155.925c.403-1.786 2.165-2.916 3.948-2.519 1.782.394 2.906 2.161 2.511 3.945-.389 1.783-2.159 2.908-3.944 2.515-1.779-.392-2.908-2.16-2.515-3.941M71.877 153.299c.693-1.694 2.618-2.514 4.312-1.822 1.691.684 2.51 2.616 1.822 4.308-.686 1.694-2.621 2.509-4.314 1.823-1.686-.692-2.507-2.619-1.82-4.309M58.254 146.71c1.064-1.483 3.138-1.821 4.614-.757 1.488 1.067 1.825 3.136.759 4.618-1.068 1.487-3.136 1.821-4.62.757-1.482-1.068-1.821-3.134-.753-4.618M49.504 139.979c1.309-1.277 3.401-1.256 4.684.053 1.275 1.305 1.247 3.401-.059 4.675-1.307 1.281-3.401 1.253-4.676-.049-1.277-1.31-1.253-3.402.051-4.679M41.232 130.753c1.528-.996 3.583-.571 4.578.959 1.006 1.527.582 3.578-.95 4.575-1.534 1.005-3.58.575-4.58-.951-1.004-1.532-.578-3.577.952-4.583M35.347 121.048c1.684-.714 3.631.069 4.337 1.751.724 1.682-.066 3.624-1.748 4.339-1.684.713-3.622-.074-4.339-1.753-.714-1.682.075-3.621 1.75-4.337M31.41 110.894c1.775-.417 3.564.687 3.976 2.464.421 1.779-.681 3.56-2.466 3.976-1.779.419-3.556-.688-3.976-2.462-.415-1.779.685-3.561 2.466-3.978M28.976 97.239c1.836-.025 3.338 1.438 3.357 3.265.021 1.825-1.438 3.325-3.267 3.35-1.828.023-3.325-1.442-3.357-3.265-.012-1.825 1.445-3.324 3.267-3.35M29.486 83.906c1.792.36 2.959 2.101 2.598 3.892-.359 1.792-2.103 2.955-3.893 2.598-1.788-.356-2.95-2.1-2.597-3.89.356-1.79 2.098-2.953 3.892-2.6M32.548 71.536c1.682.707 2.478 2.646 1.77 4.331-.706 1.684-2.641 2.479-4.328 1.771-1.684-.706-2.48-2.644-1.774-4.332.706-1.683 2.645-2.473 4.332-1.77M38.091 59.875c1.51 1.033 1.895 3.09.865 4.599-1.031 1.508-3.09 1.898-4.599.865-1.505-1.031-1.896-3.089-.867-4.601 1.034-1.505 3.092-1.889 4.601-.863M46.119 49.294c1.27 1.324 1.226 3.419-.099 4.678-1.319 1.263-3.414 1.216-4.676-.102-1.262-1.325-1.214-3.419.106-4.681 1.319-1.26 3.41-1.212 4.669.105M54.893 41.524c.998 1.53.57 3.582-.962 4.58-1.517.999-3.573.572-4.578-.956-.995-1.533-.562-3.584.961-4.586 1.53-.996 3.576-.566 4.579.962M64.883 35.516c.704 1.691-.09 3.627-1.781 4.33-1.68.706-3.62-.087-4.324-1.774-.71-1.687.089-3.623 1.773-4.33 1.686-.705 3.623.091 4.332 1.774M76.7 31.184c.362 1.795-.798 3.54-2.595 3.896-1.784.364-3.535-.795-3.893-2.59-.359-1.79.805-3.534 2.595-3.896 1.79-.359 3.532.802 3.893 2.59M81.143 19.711c.34 1.707-.761 3.363-2.467 3.704-1.697.339-3.354-.762-3.699-2.461-.341-1.702.764-3.36 2.466-3.702 1.7-.341 3.355.76 3.7 2.459M96.296 18.845c-.016 1.74-1.433 3.138-3.165 3.122-1.74-.01-3.139-1.426-3.127-3.16.011-1.74 1.433-3.134 3.165-3.126 1.736.014 3.132 1.429 3.127 3.164M113.489 21.674c-.419 1.688-2.126 2.718-3.805 2.3-1.683-.415-2.716-2.118-2.297-3.802.415-1.688 2.119-2.714 3.805-2.302 1.684.419 2.709 2.123 2.297 3.804M125.23 26.167c-.697 1.595-2.551 2.321-4.139 1.625-1.59-.693-2.321-2.548-1.626-4.138.698-1.592 2.549-2.318 4.137-1.623 1.596.697 2.317 2.546 1.628 4.136M117.833 162.859c-.646-1.614.139-3.445 1.742-4.089 1.617-.645 3.446.138 4.092 1.751.642 1.613-.139 3.441-1.748 4.087-1.611.641-3.437-.141-4.086-1.749M104.331 166.283c-.329-1.711.776-3.361 2.483-3.693 1.705-.331 3.354.778 3.69 2.479.332 1.709-.78 3.358-2.484 3.692-1.701.331-3.349-.779-3.689-2.478M88.508 167.031c.035-1.74 1.473-3.117 3.203-3.08 1.742.034 3.113 1.474 3.076 3.209-.035 1.735-1.468 3.111-3.203 3.077-1.734-.042-3.113-1.473-3.076-3.206M74.347 164.799c.375-1.698 2.043-2.77 3.741-2.405 1.695.369 2.773 2.041 2.404 3.737-.372 1.701-2.043 2.775-3.738 2.405-1.694-.371-2.771-2.045-2.407-3.737M60.385 159.647c.709-1.592 2.558-2.312 4.149-1.611 1.585.701 2.305 2.554 1.608 4.142-.705 1.59-2.557 2.31-4.145 1.61-1.589-.703-2.308-2.554-1.612-4.141M46.236 150.624c1.038-1.394 3.007-1.678 4.4-.64 1.391 1.04 1.668 3.009.627 4.399-1.035 1.393-3.002 1.677-4.396.638-1.386-1.038-1.671-3.008-.631-4.397M37.732 142.558c1.254-1.21 3.242-1.182 4.454.06 1.204 1.242 1.181 3.237-.064 4.445-1.251 1.208-3.235 1.182-4.447-.069-1.208-1.242-1.183-3.23.057-4.436M29.32 131.16c1.454-.95 3.403-.543 4.353.903.95 1.454.543 3.402-.911 4.353-1.45.954-3.398.543-4.351-.91-.948-1.451-.54-3.395.909-4.346M23.914 120.211c1.594-.701 3.446.018 4.147 1.607.698 1.587-.019 3.444-1.612 4.142-1.592.697-3.441-.017-4.144-1.61-.696-1.59.023-3.444 1.609-4.139M19.889 106.024c1.703-.368 3.378.702 3.753 2.396.368 1.695-.706 3.372-2.4 3.743-1.702.372-3.373-.7-3.75-2.4-.361-1.693.706-3.367 2.397-3.739M18.767 90.63c1.739-.008 3.155 1.382 3.173 3.118.015 1.734-1.383 3.154-3.118 3.167-1.741.01-3.156-1.384-3.168-3.12-.011-1.733 1.383-3.15 3.113-3.165M20.791 75.62c1.703.342 2.807 1.995 2.471 3.697-.343 1.7-1.999 2.807-3.702 2.465-1.707-.339-2.807-1.992-2.467-3.699.341-1.697 1.996-2.8 3.698-2.463M25.46 62.096c1.608.664 2.375 2.495 1.717 4.098-.661 1.605-2.501 2.374-4.101 1.713-1.612-.663-2.376-2.498-1.72-4.105.667-1.602 2.503-2.369 4.104-1.706M32.742 49.575c1.441.966 1.845 2.912.886 4.36-.958 1.443-2.913 1.841-4.358.879-1.45-.961-1.843-2.907-.881-4.358.959-1.443 2.908-1.836 4.353-.881M43.766 37.393c1.203 1.26 1.159 3.243-.092 4.445-1.256 1.201-3.244 1.157-4.443-.099-1.203-1.256-1.16-3.24.099-4.446 1.252-1.195 3.239-1.152 4.436.1M54.354 29.586c.955 1.455.566 3.397-.875 4.36-1.453.959-3.409.562-4.364-.883-.958-1.448-.566-3.397.883-4.358 1.454-.955 3.394-.562 4.356.881M67.195 23.375c.665 1.609-.094 3.443-1.695 4.11-1.602.664-3.445-.098-4.108-1.698-.667-1.608.09-3.442 1.701-4.113 1.601-.657 3.44.103 4.102 1.701M86.607 10.701c0 1.115-.902 2.016-2.015 2.016-1.114 0-2.016-.901-2.016-2.016 0-1.109.902-2.014 2.016-2.014 1.113 0 2.015.905 2.015 2.014M94.253 1.786c0 .891-.722 1.609-1.608 1.609-.891 0-1.615-.718-1.615-1.609S91.754.175 92.645.175c.886 0 1.608.72 1.608 1.611M115.778 4.683a1.6134 1.6134 0 0 1-1.947 1.186c-.866-.21-1.396-1.082-1.182-1.946.207-.864 1.082-1.392 1.945-1.186.86.211 1.394 1.084 1.184 1.946M132.326 10.724c-.371.808-1.333 1.164-2.142.788a1.607 1.607 0 0 1-.784-2.139c.372-.805 1.325-1.16 2.134-.788.805.374 1.165 1.331.792 2.139M124.83 178.395c-.325-.827.091-1.765.911-2.087.831-.32 1.769.087 2.084.917.327.827-.085 1.763-.913 2.083-.822.327-1.762-.083-2.082-.913M108.176 182.872c-.166-.878.415-1.716 1.285-1.877.877-.161 1.721.417 1.879 1.289.164.878-.412 1.718-1.291 1.882-.872.161-1.713-.421-1.874-1.294M89.235 184.081c.021-.891.762-1.593 1.648-1.572.892.03 1.596.767 1.568 1.657-.016.887-.756 1.594-1.647 1.567-.888-.023-1.592-.767-1.569-1.652M70.18 181.273c.214-.866 1.086-1.4 1.945-1.187.864.212 1.394 1.082 1.187 1.943-.208.864-1.077 1.4-1.944 1.191-.863-.212-1.396-1.088-1.188-1.947M53.332 175.108c.376-.808 1.332-1.156 2.135-.783.808.377 1.163 1.332.785 2.137-.373.809-1.328 1.162-2.138.785-.805-.375-1.157-1.334-.782-2.139M37.077 165.047c.534-.715 1.541-.86 2.253-.322.706.538.851 1.546.317 2.257-.531.711-1.545.857-2.254.32-.707-.536-.858-1.548-.316-2.255M25.227 154.051c.649-.607 1.669-.568 2.276.085.605.655.57 1.675-.083 2.272-.654.611-1.675.579-2.276-.079-.61-.653-.568-1.672.083-2.278M15.723 141.486c.748-.484 1.746-.269 2.225.477.483.746.276 1.743-.472 2.221-.752.487-1.742.279-2.229-.469-.482-.75-.274-1.746.476-2.23M9.138 128.947c.815-.366 1.772-.002 2.129.812.361.815 0 1.766-.811 2.126-.816.364-1.771.003-2.135-.812-.356-.812.005-1.764.817-2.126M3.891 112.643c.867-.205 1.735.331 1.94 1.196.198.87-.333 1.735-1.199 1.938-.868.207-1.735-.329-1.937-1.197-.205-.865.329-1.732 1.196-1.937M1.741 92.54c.897-.013 1.619.697 1.627 1.59.004.89-.709 1.62-1.593 1.626-.893.009-1.618-.702-1.631-1.592-.01-.891.709-1.619 1.597-1.624M3.417 75.561c.877.154 1.461.991 1.302 1.865-.159.879-.994 1.461-1.864 1.301-.885-.153-1.463-.991-1.304-1.868.154-.876.991-1.457 1.866-1.298M8.979 57.362c.828.333 1.22 1.271.888 2.096-.338.824-1.277 1.222-2.099.882-.829-.333-1.221-1.272-.889-2.097.335-.822 1.276-1.22 2.1-.881M18.028 40.958c.739.498.934 1.5.435 2.234-.502.739-1.501.937-2.23.435-.743-.496-.943-1.494-.442-2.232.498-.739 1.5-.933 2.237-.437M30.252 26.729c.628.639.614 1.656-.025 2.275-.642.624-1.662.61-2.272-.03-.627-.636-.614-1.654.024-2.277.637-.62 1.656-.605 2.273.032M44.313 15.818c.487.746.276 1.742-.469 2.229-.748.482-1.749.272-2.224-.474-.492-.746-.278-1.742.466-2.229.748-.486 1.743-.271 2.227.474M60.849 7.605c.329.832-.08 1.763-.908 2.087-.827.325-1.765-.083-2.081-.911-.331-.829.077-1.762.906-2.09.827-.323 1.761.088 2.083.914M76.097 3.343c.179.876-.384 1.723-1.256 1.9-.877.175-1.726-.386-1.9-1.257-.178-.875.388-1.724 1.263-1.901.869-.176 1.716.386 1.893 1.258M105.149 11.371c-.249 1.082-1.329 1.76-2.415 1.511-1.078-.25-1.762-1.329-1.509-2.412.245-1.082 1.326-1.76 2.412-1.514 1.081.249 1.758 1.328 1.512 2.415M121.738 15.653c-.465 1.008-1.66 1.448-2.67.982-1.012-.468-1.449-1.663-.982-2.672.467-1.012 1.665-1.451 2.673-.982 1.013.466 1.441 1.663.979 2.672M134.627 21.771c-.635.914-1.885 1.137-2.803.506-.911-.636-1.14-1.887-.511-2.801.642-.914 1.896-1.142 2.807-.506.914.632 1.148 1.888.507 2.801M130.038 166.656c-.423-1.026.063-2.202 1.104-2.625 1.018-.423 2.198.069 2.619 1.099.416 1.027-.066 2.203-1.095 2.628-1.029.419-2.206-.075-2.628-1.102M115.129 172.431c-.221-1.091.486-2.15 1.583-2.368 1.09-.216 2.15.495 2.365 1.585.221 1.093-.49 2.152-1.58 2.366-1.093.216-2.154-.493-2.368-1.583M98.038 175.315a2.009 2.009 0 0 1 2.043-1.985c1.108.016 2 .934 1.978 2.045-.013 1.112-.927 2.001-2.041 1.98-1.112-.017-1.996-.93-1.98-2.04M80.022 174.456c.258-1.082 1.342-1.749 2.427-1.493 1.077.257 1.747 1.345 1.485 2.426-.254 1.084-1.335 1.749-2.427 1.492-1.077-.26-1.74-1.343-1.485-2.425M65.573 170.806c.447-1.016 1.64-1.48 2.664-1.035 1.009.451 1.473 1.641 1.022 2.657-.444 1.017-1.631 1.481-2.65 1.031-1.016-.446-1.48-1.636-1.036-2.653M49.301 162.993c.661-.896 1.92-1.088 2.815-.43.898.659 1.086 1.919.425 2.814-.651.897-1.912 1.092-2.806.431-.898-.658-1.091-1.919-.434-2.815M36.754 153.393c.822-.752 2.094-.7 2.847.116.752.815.701 2.093-.116 2.845-.815.752-2.089.702-2.842-.113-.758-.816-.706-2.091.111-2.848M27.158 142.776c.934-.601 2.174-.331 2.784.606.598.934.329 2.183-.614 2.777-.93.603-2.173.338-2.776-.598-.602-.937-.331-2.184.606-2.785M19.707 130.995c1.029-.437 2.205.039 2.644 1.064.44 1.021-.039 2.208-1.065 2.638-1.02.434-2.202-.039-2.641-1.059-.435-1.025.045-2.209 1.062-2.643M14.008 117.026c1.089-.242 2.161.442 2.407 1.526.242 1.086-.444 2.162-1.532 2.401-1.084.244-2.154-.439-2.4-1.527-.241-1.081.444-2.159 1.525-2.4M10.67 99.336c1.113-.004 2.017.9 2.017 2.013 0 1.111-.901 2.012-2.017 2.01-1.102.002-2.007-.896-2.013-2.009 0-1.111.904-2.014 2.013-2.014M10.946 83.722c1.093.206 1.806 1.261 1.601 2.354-.211 1.092-1.268 1.808-2.356 1.596-1.09-.205-1.809-1.26-1.601-2.352.21-1.091 1.259-1.807 2.356-1.598M14.427 67.576c1.031.421 1.524 1.597 1.098 2.626-.417 1.028-1.6 1.52-2.626 1.095-1.03-.421-1.519-1.595-1.1-2.624.424-1.026 1.604-1.519 2.628-1.097M21.033 52.494c.922.619 1.173 1.868.557 2.793-.617.925-1.873 1.172-2.791.552-.927-.614-1.176-1.866-.558-2.791.615-.92 1.869-1.169 2.792-.554M31.304 38.109c.776.797.749 2.073-.051 2.848-.805.771-2.072.748-2.844-.057-.772-.799-.752-2.075.047-2.844.798-.771 2.077-.745 2.848.053M43.319 27.045c.598.935.324 2.181-.614 2.779-.939.599-2.186.323-2.773-.612-.602-.937-.331-2.182.606-2.781.938-.599 2.181-.322 2.781.614M56.434 18.972c.423 1.028-.083 2.203-1.114 2.617-1.026.412-2.202-.089-2.616-1.122-.416-1.028.086-2.203 1.12-2.616 1.026-.411 2.202.091 2.61 1.121M71.587 13.27c.207 1.093-.515 2.143-1.608 2.351-1.091.203-2.142-.518-2.343-1.611-.211-1.092.507-2.145 1.6-2.348 1.095-.204 2.153.518 2.351 1.608" style="fill:#f26521;fill-rule:nonzero"/>
  <path class="text" d="M102.682 87.161c-.905-6.399-4.843-8.614-9.19-8.614-5.25 0-8.862 3.036-10.006 8.614h19.196Zm11.155 16.571c-5.089 6.81-11.648 10.42-20.016 10.42-10.747 0-21.085-6.81-21.085-21.905 0-13.782 8.861-21.575 20.428-21.575 10.829 0 15.34 6.481 16.164 7.712 3.361 4.757 4.101 11.894 4.18 15.997H83.157c1.148 6.481 5.167 10.17 11.649 10.17 6.725 0 9.433-3.935 10.663-5.658l8.368 4.839ZM130.817 71.903v5.823c1.231-2.134 3.939-6.973 13.128-6.727v10.092c-2.132.082-5.823.163-8.859 2.461-4.182 3.198-4.269 7.382-4.269 14.191v15.178h-9.516V71.903h9.516ZM175.118 86.423c-.739-2.707-3.609-6.973-9.27-6.973s-10.174 4.512-10.174 12.716c0 7.382 3.858 12.798 10.338 12.798 6.236 0 8.613-4.758 9.844-8.041l8.45 4.43c-3.199 8.86-11.321 12.799-18.458 12.799-11.406 0-20.343-8.778-20.343-21.74 0-12.553 9.02-21.739 20.673-21.739 10.335 0 15.586 6.89 17.716 11.649l-8.776 4.101Z" style=";fill-rule:nonzero"/>
  <defs>
    <linearGradient id="a" x1="0" x2="1" y1="0" y2="0" gradientTransform="matrix(84.16 0 0 84.16 101.559 93.502)" gradientUnits="userSpaceOnUse">
      <stop offset="0" style="stop-color:#f26521;stop-opacity:1"/>
      <stop offset="1" style="stop-color:#fff;stop-opacity:1"/>
    </linearGradient>
  </defs>
</svg>
