<svg xmlns="http://www.w3.org/2000/svg" xml:space="preserve" style="fill-rule:evenodd;clip-rule:evenodd;stroke-linejoin:round;stroke-miterlimit:2" viewBox="0 0 329 161">
  <path d="M0 76.619c7.741 7.044 17.104 11.208 27.217 11.208 13.558 0 25.508-9.177 25.508-22.403 0-25.173-34.762-21.451-34.762-33.506 0-5.753 6.138-8.103 11.622-8.103 4.953 0 10.008 2.131 13.021 4.911l7.538-10.672c-7.099-5.224-14.206-7.041-21.85-7.041-12.479 0-24.855 7.679-24.855 21.017 0 23.822 34.756 18.771 34.756 33.61 0 5.431-4.52 9.378-10.978 9.378-6.882 0-13.447-3.52-17.755-8.208L0 76.619Zm115.128-27.198c0-9.02-5.211-24.54-24.75-24.54h-10.76v49.082h10.76c19.539 0 24.75-15.52 24.75-24.542Zm14.53 0c0 2.836-.346 37.345-40.895 37.345H65.091V12.079h23.672c40.549 0 40.895 34.509 40.895 37.342Zm76.386-37.342h-14.53l.006 44.273c0 18.381-15.725 18.666-17.755 18.666-2.029 0-17.75-.285-17.75-18.669l-.006-44.27h-14.526l.003 43.208c0 23.152 15.342 32.539 32.279 32.539 16.94 0 32.285-9.387 32.285-32.539l-.006-43.208ZM296.497.569c-30.143 6.512-41.728 22.262-41.728 33.921 31.487-3.774 27.641-23.35 41.728-33.921Zm32.322 52.862c-6.399 1.535-18.795 3.431-27.043 3.431-17.038 0-20.836-9.638-21.683-13.801-6.654-1.493-17.611-.706-22.89.488 5.198 1.131 8.279 5.119 9.207 12.476.623-.216 3.224-1.063 5.921-1.063 5.783 0 10.683 6.611 10.683 13.933 0 10.836-6.139 18.872-12.072 18.872-4.046 0-5.303-1.952-6.673-1.952-1.364 0-2.466 2.011-6.351 2.011-6.037 0-12.693-8.875-12.693-18.97 0-4.659 2.515-13.964 12.488-13.964 2.546 0 3.842.66 4.146.842-.168-5.099-3.859-9.678-10.514-9.678-5.653 0-19.385 5.406-29.315 13.741l-2.951-4.087c9.351-6.946 29.421-16.898 52.679-16.898 3.212 0 6.138.234 8.584.636 1.128-2.972 4.645-8.732 15.016-8.732 16.26 0 28.263 13.715 33.461 22.715ZM8.88 133c-1.04 0-2.008-.196-2.905-.588-.895-.392-1.664-.932-2.303-1.619-.544-.593-.972-1.289-1.285-2.089-.311-.8-.467-1.768-.467-2.904v-9.84h2.4v9.96c0 .8.092 1.46.275 1.98.184.52.445.964.781 1.332.416.464.924.828 1.524 1.093.6.263 1.26.395 1.98.395.719 0 1.38-.132 1.98-.395.6-.265 1.108-.629 1.524-1.093.336-.368.595-.812.78-1.332.183-.52.276-1.18.276-1.98v-9.96h2.4v9.84c0 1.136-.157 2.104-.468 2.904-.313.8-.74 1.496-1.284 2.089-.64.687-1.408 1.227-2.304 1.619-.896.392-1.864.588-2.904.588ZM23.208 122.56c.304-.288.74-.58 1.307-.876.569-.296 1.261-.444 2.077-.444.832 0 1.604.18 2.316.54.712.36 1.308.844 1.788 1.452.367.464.644 1.004.828 1.62.184.616.276 1.412.276 2.388v5.52h-2.281v-5.64c0-.72-.059-1.272-.179-1.656-.12-.384-.285-.704-.493-.96-.271-.336-.611-.604-1.019-.804-.408-.2-.845-.3-1.309-.3-.752 0-1.395.164-1.931.492-.536.328-.972.7-1.308 1.116v7.752H21v-11.28h2.208v1.08ZM36.84 121.48h2.28v11.28h-2.28v-11.28Zm-.361-4.008c0-.416.145-.772.433-1.068.288-.296.64-.444 1.056-.444.416 0 .771.148 1.068.444.296.296.443.652.443 1.068 0 .416-.147.768-.443 1.056-.297.288-.652.432-1.068.432-.416 0-.768-.144-1.056-.432-.288-.288-.433-.64-.433-1.056ZM42.599 121.48h2.352l3.336 7.68 3.336-7.68h2.352l-4.896 11.28h-1.584l-4.896-11.28ZM62.063 123.232c-.736 0-1.4.224-1.992.672-.593.448-.984 1.04-1.176 1.776h6.144c-.08-.352-.22-.68-.42-.984-.2-.304-.432-.564-.696-.781a3.1052 3.1052 0 0 0-.876-.503c-.321-.12-.648-.18-.984-.18Zm-3.36 4.368c.032.48.147.924.348 1.333.2.407.46.767.78 1.079.32.313.696.556 1.128.732.431.176.895.264 1.391.264.832 0 1.5-.164 2.005-.491.504-.329.915-.677 1.236-1.045l1.488 1.416c-.416.545-1.024 1.032-1.824 1.464-.8.432-1.776.648-2.928.648-.816 0-1.58-.148-2.292-.444-.712-.296-1.332-.704-1.86-1.224s-.94-1.14-1.236-1.86c-.297-.72-.444-1.504-.444-2.352 0-.848.136-1.632.408-2.352.272-.72.652-1.34 1.14-1.86.488-.52 1.068-.928 1.74-1.224.672-.296 1.407-.444 2.208-.444.783 0 1.508.148 2.172.444.664.296 1.236.708 1.716 1.236s.855 1.152 1.128 1.872c.272.72.408 1.496.408 2.328v.191c0 .081-.008.177-.025.289h-8.687ZM77.951 123.496c-.24-.064-.536-.096-.888-.096-.592 0-1.168.18-1.728.54-.56.36-1 .812-1.32 1.356v7.464h-2.28v-11.28h2.208v1.296c.272-.384.696-.736 1.272-1.056.576-.32 1.28-.48 2.112-.48.128 0 .276.004.444.012.168.008.316.028.444.059l-.264 2.185ZM82.27 129.76c1.073.832 2.185 1.248 3.336 1.248.496 0 .949-.124 1.357-.372.408-.248.612-.596.612-1.044 0-.32-.108-.575-.324-.767-.216-.193-.492-.349-.828-.469-.336-.12-.712-.228-1.128-.324-.416-.096-.832-.216-1.248-.36-.336-.112-.66-.252-.972-.42-.312-.168-.589-.372-.828-.612-.24-.24-.433-.512-.576-.816-.145-.304-.216-.656-.216-1.056 0-.608.123-1.132.372-1.572.247-.44.567-.804.96-1.092.392-.288.836-.504 1.332-.648.495-.145.999-.216 1.512-.216.832 0 1.551.116 2.16.348.607.232 1.136.532 1.584.9l-1.176 1.632c-.353-.272-.728-.488-1.129-.648-.399-.16-.832-.24-1.296-.24-.559 0-1.04.124-1.439.372-.401.248-.601.596-.601 1.044 0 .384.196.664.589.84.392.176.867.336 1.428.48.447.112.912.252 1.391.42.481.168.92.388 1.321.66.399.272.731.612.996 1.02.263.408.395.9.395 1.477 0 .528-.116 1.007-.347 1.439-.233.431-.54.796-.924 1.092-.384.296-.832.524-1.345.684-.512.159-1.04.24-1.584.24-1.76 0-3.279-.52-4.559-1.56l1.175-1.68ZM94.295 121.48h2.28v11.28h-2.28v-11.28Zm-.361-4.008c0-.416.145-.772.433-1.068.288-.296.64-.444 1.056-.444.416 0 .771.148 1.068.444.296.296.443.652.443 1.068 0 .416-.147.768-.443 1.056-.297.288-.652.432-1.068.432-.416 0-.768-.144-1.056-.432-.288-.288-.433-.64-.433-1.056ZM108.815 132.76c-.225.08-.496.139-.817.18-.32.039-.639.06-.96.06-.719 0-1.339-.117-1.859-.348-.521-.232-.965-.556-1.332-.972-.336-.368-.572-.808-.708-1.32-.137-.511-.204-1.072-.204-1.68v-5.161h-2.88v-2.039h2.88v-3.12h2.28v3.12h3.6v2.039h-3.6v5.281c0 .304.02.577.06.816.04.24.132.448.276.625.159.192.384.339.672.444.288.103.584.155.888.155.175 0 .383-.012.624-.036.24-.024.448-.06.624-.108l.456 2.064ZM113.59 138.52l3.049-6.936-4.824-10.104h2.448l3.527 7.44 3.241-7.44h2.4l-7.416 17.04h-2.425ZM135.79 127.12c0 .512.087.996.264 1.453.176.455.42.851.732 1.187.312.336.684.6 1.116.792.432.192.912.288 1.44.288.528 0 1.008-.096 1.44-.288.432-.192.804-.456 1.116-.792.312-.336.555-.732.732-1.187.176-.457.264-.941.264-1.453 0-.512-.088-.997-.264-1.452-.177-.456-.42-.852-.732-1.188-.312-.336-.684-.6-1.116-.792-.432-.192-.912-.288-1.44-.288-.528 0-1.008.096-1.44.288-.432.192-.804.456-1.116.792-.312.336-.556.732-.732 1.188-.177.455-.264.94-.264 1.452Zm-2.28 0c0-.832.148-1.608.444-2.328.296-.72.704-1.344 1.224-1.872s1.136-.94 1.848-1.236c.712-.296 1.484-.444 2.316-.444.832 0 1.604.148 2.316.444.711.296 1.328.708 1.848 1.236s.928 1.152 1.224 1.872c.296.72.444 1.496.444 2.328 0 .848-.148 1.628-.444 2.341-.296.711-.704 1.332-1.224 1.86-.52.527-1.137.939-1.848 1.235-.712.296-1.484.444-2.316.444-.832 0-1.604-.148-2.316-.444-.712-.296-1.328-.708-1.848-1.235-.52-.528-.928-1.149-1.224-1.86-.296-.713-.444-1.493-.444-2.341ZM155.973 117.736c-.08-.032-.2-.056-.359-.072a4.8561 4.8561 0 0 0-.481-.024c-.32 0-.64.068-.96.204-.32.136-.576.332-.767.588-.161.208-.273.468-.336.78-.065.312-.097.724-.097 1.236v1.032h3.48v2.039h-3.48v9.241h-2.279v-9.241h-2.641v-2.039h2.641v-.961c0-.767.055-1.395.168-1.883.111-.488.296-.916.551-1.284.416-.592.945-1.052 1.584-1.38.64-.328 1.344-.492 2.113-.492.24 0 .483.016.731.048s.452.072.612.12l-.48 2.088ZM2.376 156.56c.496.608 1.088 1.12 1.776 1.536.688.416 1.464.624 2.328.624.384 0 .756-.06 1.115-.18.361-.12.672-.292.937-.516.264-.224.476-.488.636-.792.16-.304.24-.648.24-1.032 0-.64-.196-1.156-.588-1.548-.392-.392-.881-.732-1.464-1.02-.585-.288-1.213-.56-1.885-.816-.671-.256-1.288-.568-1.847-.936-.609-.4-1.116-.896-1.525-1.488-.407-.592-.611-1.328-.611-2.208 0-.608.128-1.184.384-1.728s.612-1.02 1.068-1.428c.456-.408.991-.728 1.608-.96.616-.232 1.292-.348 2.028-.348.527 0 1.019.052 1.476.156.456.104.872.24 1.248.408.376.168.712.348 1.007.54.296.192.556.384.781.576l-1.416 1.752c-.912-.768-1.912-1.152-3-1.152-.352 0-.693.048-1.02.144-.328.096-.624.24-.889.432-.263.192-.475.428-.635.708-.16.28-.241.604-.241.972 0 .528.197.968.588 1.32.393.352.88.668 1.465.948.583.28 1.207.556 1.871.828.664.272 1.269.584 1.813.936.288.192.559.408.816.648.255.24.487.516.696.828.208.312.372.664.492 1.056s.179.828.179 1.308c0 .736-.135 1.404-.407 2.004-.272.6-.64 1.112-1.104 1.536-.464.424-1.012.752-1.644.984-.633.231-1.316.348-2.053.348-1.151 0-2.231-.24-3.239-.72-1.009-.48-1.889-1.176-2.641-2.088l1.657-1.632ZM17.328 155.12c0 .512.087.996.264 1.452.175.456.42.852.732 1.188.312.336.684.6 1.115.792.433.192.912.288 1.441.288.528 0 1.008-.096 1.439-.288.433-.192.805-.456 1.116-.792.313-.336.556-.732.733-1.188.176-.456.263-.94.263-1.452s-.087-.996-.263-1.452c-.177-.456-.42-.852-.733-1.188-.311-.336-.683-.6-1.116-.792-.431-.192-.911-.288-1.439-.288-.529 0-1.008.096-1.441.288-.431.192-.803.456-1.115.792-.312.336-.557.732-.732 1.188-.177.456-.264.94-.264 1.452Zm-2.28 0c0-.832.147-1.608.444-2.328.296-.72.703-1.344 1.224-1.872.519-.528 1.135-.94 1.847-1.236.712-.296 1.485-.444 2.317-.444.832 0 1.603.148 2.315.444.712.296 1.328.708 1.849 1.236.519.528.927 1.152 1.223 1.872.296.72.445 1.496.445 2.328 0 .848-.149 1.628-.445 2.34-.296.712-.704 1.332-1.223 1.86-.521.528-1.137.94-1.849 1.236-.712.296-1.483.444-2.315.444-.832 0-1.605-.148-2.317-.444-.712-.296-1.328-.708-1.847-1.236-.521-.528-.928-1.148-1.224-1.86-.297-.712-.444-1.492-.444-2.34ZM35.831 161c-.816 0-1.572-.168-2.268-.504-.696-.336-1.276-.8-1.74-1.392-.352-.432-.612-.944-.78-1.536-.168-.592-.252-1.368-.252-2.328v-5.76h2.28v6.12c0 .576.056 1.036.168 1.38.111.344.272.636.48.876.255.304.576.544.961.72.383.176.791.264 1.223.264.704 0 1.328-.172 1.872-.516.544-.344.976-.708 1.296-1.092v-7.752h2.28v11.28h-2.208v-1.032c-.129.128-.3.264-.516.408-.216.144-.464.28-.744.408-.28.128-.596.236-.948.324-.352.088-.72.132-1.104.132ZM53.592 160.76c-.225.08-.496.139-.817.18-.32.039-.639.06-.96.06-.719 0-1.34-.117-1.859-.348-.521-.232-.965-.556-1.332-.972-.336-.368-.572-.808-.708-1.32-.137-.512-.204-1.072-.204-1.68v-5.16h-2.88v-2.04h2.88v-3.12h2.28v3.12h3.6v2.04h-3.6v5.28c0 .304.02.576.06.816.04.24.131.448.276.624.159.192.384.34.672.444.288.104.584.156.888.156.175 0 .383-.012.624-.036.24-.024.448-.06.624-.108l.456 2.064ZM60.191 150.464c.32-.272.756-.544 1.308-.816.552-.272 1.22-.408 2.004-.408.832 0 1.604.18 2.316.54.712.36 1.308.844 1.788 1.452.367.464.644 1.004.828 1.62.184.616.276 1.412.276 2.388v5.52H66.43v-5.64c0-.72-.059-1.272-.179-1.656-.12-.384-.284-.704-.492-.96-.272-.336-.612-.604-1.02-.804-.408-.2-.845-.3-1.309-.3-.751 0-1.395.164-1.931.492-.536.328-.972.7-1.308 1.116v7.752h-2.28v-17.04h2.28v6.744ZM78.359 151.232c-.736 0-1.4.224-1.992.672-.593.448-.984 1.04-1.176 1.776h6.144c-.08-.352-.22-.68-.42-.984-.2-.304-.432-.564-.696-.781a3.1052 3.1052 0 0 0-.876-.503c-.321-.12-.648-.18-.984-.18Zm-3.36 4.368c.032.48.147.924.347 1.332.201.408.46.768.781 1.08.32.312.696.556 1.128.732.431.176.895.264 1.391.264.832 0 1.5-.164 2.005-.492.504-.328.915-.676 1.236-1.044l1.488 1.416c-.416.544-1.025 1.032-1.824 1.464-.8.432-1.776.648-2.928.648-.817 0-1.58-.148-2.292-.444-.712-.296-1.332-.704-1.86-1.224s-.94-1.14-1.236-1.86c-.297-.72-.444-1.504-.444-2.352 0-.848.136-1.632.408-2.352.272-.72.651-1.34 1.14-1.86.488-.52 1.068-.928 1.74-1.224.672-.296 1.407-.444 2.208-.444.783 0 1.508.148 2.172.444.664.296 1.236.708 1.716 1.236s.855 1.152 1.128 1.872c.272.72.408 1.496.408 2.328v.191c0 .081-.008.177-.025.289h-8.687ZM94.247 151.496c-.24-.064-.536-.096-.888-.096-.593 0-1.168.18-1.728.54-.56.36-1 .812-1.32 1.356v7.464h-2.28v-11.28h2.208v1.296c.272-.384.696-.736 1.272-1.056.576-.32 1.28-.48 2.112-.48.128 0 .276.004.444.012.168.008.316.028.444.059l-.264 2.185ZM100.679 150.56c.304-.288.74-.58 1.308-.876.568-.296 1.26-.444 2.076-.444.832 0 1.604.18 2.316.54.712.36 1.308.844 1.788 1.452.367.464.644 1.004.828 1.62.184.616.276 1.412.276 2.388v5.52h-2.28v-5.64c0-.72-.06-1.272-.18-1.656-.12-.384-.284-.704-.492-.96-.272-.336-.612-.604-1.02-.804-.408-.2-.845-.3-1.308-.3-.752 0-1.396.164-1.932.492-.536.328-.972.7-1.308 1.116v7.752h-2.28v-11.28h2.208v1.08ZM133.87 152.36c0-.944-.179-1.824-.54-2.64-.36-.816-.86-1.504-1.5-2.064-.528-.464-1.164-.816-1.908-1.056-.745-.24-1.708-.36-2.891-.36h-2.521v12.24h2.521c1.183 0 2.146-.12 2.891-.36.744-.24 1.38-.592 1.908-1.056.64-.56 1.14-1.248 1.5-2.064.361-.816.54-1.696.54-2.64Zm-11.759 8.4v-16.8h5.04c1.343 0 2.467.136 3.371.408.904.272 1.7.664 2.388 1.176 1.04.767 1.861 1.744 2.46 2.928.6 1.184.901 2.48.901 3.888s-.297 2.704-.889 3.888c-.592 1.184-1.408 2.16-2.447 2.928-.689.512-1.488.904-2.401 1.176-.913.272-2.04.408-3.383.408h-5.04ZM144.959 151.232c-.736 0-1.4.224-1.992.672-.593.448-.984 1.04-1.176 1.776h6.144c-.08-.352-.22-.68-.42-.984-.2-.304-.432-.564-.696-.781a3.1052 3.1052 0 0 0-.876-.503c-.321-.12-.648-.18-.984-.18Zm-3.36 4.368c.032.48.147.924.348 1.332.2.408.46.768.78 1.08.32.312.696.556 1.128.732.431.176.895.264 1.391.264.832 0 1.5-.164 2.005-.492.504-.328.915-.676 1.236-1.044l1.488 1.416c-.416.544-1.025 1.032-1.824 1.464-.8.432-1.776.648-2.928.648-.816 0-1.58-.148-2.292-.444-.712-.296-1.332-.704-1.86-1.224s-.94-1.14-1.236-1.86c-.297-.72-.444-1.504-.444-2.352 0-.848.136-1.632.408-2.352.272-.72.651-1.34 1.14-1.86.488-.52 1.068-.928 1.74-1.224.672-.296 1.407-.444 2.208-.444.783 0 1.508.148 2.172.444.664.296 1.236.708 1.716 1.236s.855 1.152 1.128 1.872c.272.72.408 1.496.408 2.328v.191c0 .081-.008.177-.025.289h-8.687ZM156.838 150.56c.304-.288.74-.58 1.308-.876.568-.296 1.261-.444 2.076-.444.832 0 1.604.18 2.316.54.712.36 1.308.844 1.788 1.452.368.464.644 1.004.829 1.62.183.616.275 1.412.275 2.388v5.52h-2.28v-5.64c0-.72-.06-1.272-.18-1.656-.12-.384-.284-.704-.492-.96-.272-.336-.612-.604-1.02-.804-.408-.2-.844-.3-1.308-.3-.752 0-1.396.164-1.932.492-.536.328-.972.7-1.308 1.116v7.752h-2.28v-11.28h2.208v1.08ZM172.678 149.48v1.08c.111-.128.276-.268.492-.42.216-.152.468-.296.756-.432s.607-.248.96-.336c.352-.088.72-.132 1.104-.132.832 0 1.587.172 2.268.516.68.344 1.252.796 1.716 1.356.512-.512 1.1-.952 1.764-1.32.664-.368 1.507-.552 2.532-.552.816 0 1.572.168 2.268.504.696.336 1.276.8 1.74 1.392.352.432.612.944.78 1.536.168.592.252 1.368.252 2.328v5.76h-2.28v-6.12c0-.576-.056-1.036-.168-1.38-.112-.344-.272-.636-.48-.876-.256-.304-.568-.544-.936-.72-.369-.176-.76-.264-1.176-.264-.816 0-1.5.172-2.052.515-.552.345-1.013.709-1.38 1.093.064.272.111.572.144.9.032.328.048.692.048 1.092v5.76h-2.28v-6.12c0-.576-.056-1.036-.168-1.38-.112-.344-.272-.636-.48-.876-.256-.304-.576-.544-.96-.72-.384-.176-.792-.264-1.224-.264-.704 0-1.328.172-1.872.515-.544.345-.976.709-1.296 1.093v7.752h-2.28v-11.28h2.208ZM202.51 153.008c-.352-.464-.804-.848-1.356-1.152-.552-.304-1.172-.456-1.86-.456-.545 0-1.041.1-1.488.3-.448.2-.828.472-1.14.816-.312.344-.556.74-.732 1.188-.177.448-.264.92-.264 1.416 0 .512.092.992.276 1.44.183.448.444.84.78 1.176.336.336.732.604 1.187.804.456.2.956.3 1.5.3.577 0 1.141-.14 1.693-.42.552-.28 1.02-.676 1.404-1.188v-4.224Zm.072 6.72c-.465.416-.993.732-1.584.948-.592.216-1.224.324-1.896.324-.513 0-1.017-.068-1.512-.204-.496-.136-.936-.316-1.32-.54-.864-.512-1.56-1.212-2.088-2.1-.528-.888-.792-1.9-.792-3.036 0-1.136.268-2.152.804-3.048.536-.896 1.236-1.6 2.1-2.112.384-.224.808-.4 1.272-.528.464-.128.96-.192 1.488-.192.64 0 1.26.1 1.859.3.601.2 1.157.524 1.669.972v-1.032h2.208v11.28h-2.208v-1.032ZM216.285 151.496c-.24-.064-.536-.096-.887-.096-.593 0-1.168.18-1.729.54-.559.36-1 .812-1.319 1.356v7.464h-2.28v-11.28h2.208v1.296c.271-.384.696-.736 1.271-1.056.576-.32 1.28-.48 2.112-.48.128 0 .277.004.445.012.168.008.315.028.443.059l-.264 2.185ZM231.43 160.76h-3.048l-5.592-5.52v5.52h-2.28v-17.04h2.28v10.08l4.704-4.32h3.216l-5.64 5.088 6.36 6.192Z" style="fill:#231f20;fill-rule:nonzero"/>
</svg>
